<svg xmlns="http://www.w3.org/2000/svg" version="1.1" xmlns:xlink="http://www.w3.org/1999/xlink" xmlns:svgjs="http://svgjs.com/svgjs" width="1440" height="1400" preserveAspectRatio="none" viewBox="0 0 1440 1400"><g mask="url(&quot;#SvgjsMask32323&quot;)" fill="none"><rect width="1440" height="1400" x="0" y="0" fill="url(#SvgjsLinearGradient32324)"></rect><use xlink:href="#SvgjsG32338" transform="translate(0, 0)" fill="rgba(157, 157, 157, 1)"></use><use xlink:href="#SvgjsG32338" transform="translate(0, 384)" fill="rgba(157, 157, 157, 1)"></use><use xlink:href="#SvgjsG32338" transform="translate(0, 768)" fill="rgba(157, 157, 157, 1)"></use><use xlink:href="#SvgjsG32338" transform="translate(0, 1152)" fill="rgba(157, 157, 157, 1)"></use><use xlink:href="#SvgjsG32338" transform="translate(384, 0)" fill="rgba(157, 157, 157, 1)"></use><use xlink:href="#SvgjsG32338" transform="translate(384, 384)" fill="rgba(157, 157, 157, 1)"></use><use xlink:href="#SvgjsG32338" transform="translate(384, 768)" fill="rgba(110, 110, 110, 1)"></use><use xlink:href="#SvgjsG32338" transform="translate(384, 1152)" fill="rgba(110, 110, 110, 1)"></use><use xlink:href="#SvgjsG32338" transform="translate(768, 0)" fill="rgba(110, 110, 110, 1)"></use><use xlink:href="#SvgjsG32338" transform="translate(768, 384)" fill="rgba(157, 157, 157, 1)"></use><use xlink:href="#SvgjsG32338" transform="translate(768, 768)" fill="rgba(157, 157, 157, 1)"></use><use xlink:href="#SvgjsG32338" transform="translate(768, 1152)" fill="rgba(157, 157, 157, 1)"></use><use xlink:href="#SvgjsG32338" transform="translate(1152, 0)" fill="rgba(157, 157, 157, 1)"></use><use xlink:href="#SvgjsG32338" transform="translate(1152, 384)" fill="rgba(110, 110, 110, 1)"></use><use xlink:href="#SvgjsG32338" transform="translate(1152, 768)" fill="rgba(110, 110, 110, 1)"></use><use xlink:href="#SvgjsG32338" transform="translate(1152, 1152)" fill="rgba(110, 110, 110, 1)"></use></g><defs><mask id="SvgjsMask32323"><rect width="1440" height="1400" fill="#ffffff"></rect></mask><linearGradient x1="0%" y1="50%" x2="100%" y2="50%" gradientUnits="userSpaceOnUse" id="SvgjsLinearGradient32324"><stop stop-color="rgba(255, 255, 255, 0.94)" offset="0"></stop><stop stop-color="rgba(223, 243, 237, 1)" offset="0.48"></stop><stop stop-color="rgba(255, 255, 255, 1)" offset="1"></stop></linearGradient><g id="SvgjsG32331"><path d="M4.81 14.78C0.9 13.12-0.94 8.58 0.73 4.66 2.39 0.74 6.93-1.09 10.84 0.57S16.59 6.77 14.93 10.69c-1.66 3.92-6.2 5.75-10.12 4.09z m0.75-1.76c2.95 1.25 6.37-0.13 7.62-3.08 1.25-2.94-0.13-6.37-3.08-7.61-2.95-1.25-6.36 0.13-7.62 3.07-1.25 2.95 0.13 6.36 3.08 7.62z"></path><path d="M7.47 8.63a0.57 0.57 0 0 1-0.5-0.26 0.58 0.58 0 0 1-0.08-0.47L8.63 3.77a0.58 0.58 0 0 1 1.07 0.46l-1.36 3.2 3.29-0.13a0.58 0.58 0 0 1 0.6 0.56c0.01 0.32-0.24 0.59-0.55 0.6l-4.21 0.17z"></path></g><g id="SvgjsG32327"><path d="M14.1 12.14c0.27 0.12 0.62 0 0.77-0.25 0 0 0.21-0.36 0.4-0.8s0.3-0.85 0.3-0.85c0.08-0.28-0.08-0.61-0.35-0.73l-1.41-0.59c-0.27-0.12-0.48-0.41-0.46-0.66s0.2-0.96 0.48-1.07l1.41-0.57c0.27-0.11 0.43-0.43 0.34-0.72l-0.67-1.66c-0.14-0.26-0.47-0.39-0.74-0.27l-1.41 0.57c-0.27 0.11-0.63 0.05-0.79-0.13s-0.54-0.83-0.42-1.1L12.14 1.9c0.12-0.27 0-0.62-0.25-0.77 0 0-0.36-0.21-0.8-0.4s-0.85-0.3-0.85-0.3c-0.29-0.08-0.61 0.08-0.73 0.35l-0.6 1.41c-0.12 0.27-0.41 0.48-0.65 0.46s-0.96-0.2-1.07-0.48l-0.57-1.41C6.51 0.48 6.19 0.33 5.9 0.42l-1.66 0.67c-0.26 0.14-0.39 0.47-0.27 0.74l0.57 1.41c0.11 0.27 0.05 0.63-0.13 0.79s-0.83 0.54-1.11 0.42L1.9 3.86c-0.27-0.12-0.62 0-0.77 0.25 0 0-0.21 0.36-0.4 0.8s-0.3 0.85-0.3 0.85c-0.08 0.29 0.08 0.61 0.35 0.73l1.41 0.6c0.27 0.12 0.48 0.41 0.46 0.65-0.02 0.24-0.2 0.96-0.48 1.07l-1.41 0.57C0.49 9.49 0.33 9.82 0.42 10.1l0.67 1.66c0.14 0.26 0.47 0.39 0.74 0.28l1.41-0.57c0.27-0.11 0.63-0.05 0.79 0.12s0.54 0.83 0.42 1.11l-0.59 1.4c-0.12 0.27 0 0.62 0.25 0.77 0 0 0.36 0.21 0.8 0.4s0.85 0.3 0.85 0.3c0.29 0.08 0.61-0.08 0.73-0.35l0.6-1.4c0.12-0.27 0.41-0.48 0.65-0.47 0.24 0.02 0.96 0.2 1.07 0.48l0.57 1.41c0.11 0.27 0.43 0.43 0.72 0.35l1.66-0.68c0.26-0.14 0.39-0.47 0.28-0.74l-0.58-1.41c-0.11-0.27-0.05-0.63 0.14-0.79 0.18-0.16 0.83-0.54 1.1-0.42l1.4 0.6zM6.87 10.66c-1.47-0.62-2.16-2.32-1.53-3.79 0.62-1.47 2.32-2.16 3.79-1.53S11.29 7.66 10.66 9.13 8.34 11.29 6.87 10.66z"></path></g><g id="SvgjsG32325"><path d="M9.8 3.02c0.67 0.29 1.45-0.03 1.74-0.7 0.28-0.67-0.03-1.45-0.7-1.73-0.67-0.29-1.45 0.03-1.74 0.7-0.28 0.68 0.03 1.46 0.7 1.73z m0.22 12.02l0.54 0.23c0.37 0.16 0.69-0.06 0.8-0.33 0 0 1.27-2.99 1.28-3 0.11-0.27 0.03-0.66-0.32-0.82l-0.54-0.22-1.76 4.14z"></path><path d="M11.5 10.77L10.72 10.44l0.24-0.56c0.09-0.22 0.02-0.38-0.21-0.47 0 0-0.14-0.06-0.37-0.16l1.37-3.22c0.31-0.74 0.01-1.8-0.83-2.16L8.21 2.73 6.76-0.99C6.43-1.8 5.26-1.33 5.58-0.52l1.86 4.74L3.34 13.88c-0.4 0.96 1 1.52 1.4 0.6L7.1 8.91l0.23 0.09-2.36 5.57c-0.39 0.93 1 1.55 1.4 0.6l0.61-1.42 2.76 1.17L11.5 10.77zM9.22 9.15l-0.23 0.56-0.25-0.11 1.58-3.73 0.25 0.11-1.35 3.17z"></path></g><g id="SvgjsG32336"><path d="M7.45 7.75c-0.38 0.14-3.44 1.32-3.44 1.32l0.33 0.81S7.03 8.92 7.43 8.78c0.1-0.04 0.28-0.11 0.5-0.02l6.58 2.79L14.9 10.64 8.09 7.75c-0.2-0.08-0.42-0.09-0.64 0zM13.45 4.45c0.77 0.33 1.42-0.03 1.7-0.69 0.28-0.66-0.03-1.42-0.69-1.7a1.29 1.29 0 0 0-1.01 2.39zM10.81 5.75l0.4 0.17-1.48 1.85L13.64 9.43l0.31-2.35 0.4 0.17-0.29 2.36 1.03 0.44L15.45 6.9c0.05-0.43-0.14-1.32-0.99-1.68L12.19 4.26c-0.84-0.36-1.62 0.12-1.9 0.45l-2.01 2.45 1.03 0.43 1.5-1.84zM6.58 6.31l-0.1-1.16-0.11-1.25s-0.02-0.12-0.16-0.11c-0.12 0.01-0.13 0.14-0.13 0.14l0.07 0.82 0.04 0.5-0.21-0.22c-0.36-0.39-0.57-0.58-0.64-0.66-0.01-0.02-0.08-0.1-0.08-0.2-0.01-0.31 0.03-1.77 0.03-2.1 0.01-0.27-0.09-0.71-0.51-1.03-0.49-0.36-1.18-0.25-1.53 0.24l-2.07 2.8C1.01 4.3 0.61 4.94 0.49 5.22s-2.58 6.09-2.58 6.09c-0.21 0.52-0.02 1.09 0.49 1.31 0.51 0.22 1.04-0.05 1.26-0.57 0 0 1.41-3.32 2.19-5.16l2.2-2.99c0 0.26-0.01 0.59 0 0.66 0.02 0.19 0.07 0.34 0.21 0.5 0 0 0.85 0.87 1.18 1.22a0.62 0.62 0 0 0 0.73 0.1l0.1-0.09 0 0.04s0.03 0.26 0.2 0.34c0.12-0.14 0.11-0.36 0.11-0.36z"></path><path d="M4.83-0.63a1.3 1.3 0 1 0 2.39 1.01 1.3 1.3 0 1 0-2.39-1.01"></path><path d="M4.45 8.39l3.24-1.17-0.16-0.46L4.29 7.94z"></path></g><g id="SvgjsG32337"><path d="M11.49 4.32c0.82 0.35 1.78-0.03 2.13-0.86C13.96 2.63 13.58 1.68 12.76 1.33c-0.83-0.35-1.78 0.04-2.13 0.86-0.35 0.83 0.03 1.78 0.86 2.13zM8.57 1.66c1.03-0.08 1.87 1.22 1.51 2.11l-1.21 2.85 0.72 2.07c0.33 0.96-1.06 1.5-1.46 0.51L7.32 6.87c-0.06-0.14-0.08-0.28 0.03-0.54l0.58-1.36-3.29 0.31-3.07 7.23c-0.69 1.64-2.91 0.7-2.22-0.92L2.99 3.01c0.2-0.48 0.59-0.86 1.18-0.94L8.57 1.66z"></path><path d="M10.99 11.36l2.35 1L15.16 8.08l-4.73-2.02c-0.61-0.26-1.13 0.33-0.93 0.93l1.49 4.37z m0.54-5.06a0.2 0.2 0 0 0 0.26-0.1 0.2 0.2 0 0 0-0.1-0.27c-0.1-0.04-0.22 0-0.26 0.11s0 0.22 0.1 0.26z m0.48 0.24a0.2 0.2 0 0 0 0.26-0.1 0.2 0.2 0 0 0-0.11-0.27 0.2 0.2 0 0 0-0.26 0.11c-0.04 0.1 0.01 0.22 0.11 0.26z m0.26-0.53c0.1 0.05 0.21 0 0.26-0.1 0.04-0.11 0-0.22-0.11-0.26-0.1-0.04-0.22 0-0.26 0.11a0.2 0.2 0 0 0 0.11 0.25z m-0.47-0.24c0.1 0.04 0.22 0 0.26-0.1 0.04-0.1-0.01-0.22-0.11-0.27-0.1-0.04-0.22 0.01-0.26 0.11-0.04 0.1 0 0.22 0.11 0.26z m0.37-0.43c0.11 0.04 0.23-0.01 0.27-0.11 0.04-0.11-0.01-0.23-0.11-0.27-0.11-0.05-0.23 0-0.28 0.11-0.05 0.1 0 0.22 0.12 0.28z m0.55 0.35c0.11 0.04 0.23-0.01 0.27-0.11 0.05-0.11 0-0.23-0.11-0.27-0.1-0.05-0.22 0-0.27 0.11-0.04 0.1 0.01 0.23 0.11 0.27z m0-0.58c0.11 0.04 0.24-0.01 0.28-0.12 0.05-0.12 0-0.24-0.11-0.29-0.11-0.05-0.24 0.01-0.28 0.12-0.05 0.11 0 0.23 0.11 0.29zM13.27 5.72c0.11 0.04 0.24-0.01 0.29-0.12a0.22 0.22 0 0 0-0.12-0.29c-0.11-0.05-0.24 0.01-0.28 0.12-0.05 0.11 0 0.23 0.11 0.29z m-0.01-0.59c0.12 0.05 0.24-0.01 0.29-0.11a0.23 0.23 0 0 0-0.12-0.3c-0.11-0.04-0.24 0.01-0.29 0.12a0.22 0.22 0 0 0 0.12 0.29z m0.54 0.23a0.24 0.24 0 0 0 0.32-0.13c0.05-0.12-0.01-0.26-0.13-0.32a0.25 0.25 0 0 0-0.32 0.13c-0.05 0.12 0.01 0.27 0.13 0.32z m-0.11 0.76c0.12 0.05 0.26-0.01 0.31-0.13 0.05-0.12-0.01-0.27-0.12-0.32a0.24 0.24 0 0 0-0.32 0.13 0.24 0.24 0 0 0 0.13 0.32z m0.51-0.28c0.13 0.05 0.28-0.01 0.33-0.13 0.06-0.13 0-0.28-0.13-0.34-0.13-0.05-0.28 0.01-0.33 0.14-0.05 0.13 0.01 0.27 0.13 0.33z m0.26 0.64a0.27 0.27 0 0 0 0.35-0.14c0.06-0.14-0.01-0.3-0.14-0.35-0.13-0.06-0.29 0-0.36 0.14-0.05 0.13 0.01 0.29 0.15 0.35zM13.85 6.73a0.27 0.27 0 0 0 0.35-0.13c0.06-0.14-0.01-0.3-0.14-0.36a0.26 0.26 0 0 0-0.34 0.15c-0.06 0.13 0 0.29 0.13 0.34z"></path></g><g id="SvgjsG32332"><path d="M14.16 8.47c1.26-2.97-0.13-6.41-3.1-7.67-2.97-1.26-6.41 0.13-7.67 3.1L2.02 3.32l-3.63 8.56 13.5 5.73 3.63-8.56-1.36-0.58z m-8.57-3.63c0.74-1.75 2.77-2.57 4.53-1.83S12.69 5.78 11.95 7.53L5.6 4.84z m2.19 5.69l-1.05 2.46-1.46-0.62L6.32 9.91c-0.21-0.35-0.26-0.8-0.08-1.21 0.29-0.68 1.08-1 1.75-0.71s1 1.08 0.71 1.76c-0.17 0.41-0.53 0.68-0.92 0.78z"></path></g><g id="SvgjsG32326"><path d="M10.34 2.5C6.48 0.86 2.36 1.89 1.13 4.79c-0.6 1.42-0.4 3.03 0.41 4.49l-1.33 3.16 4.34-0.11c0.41 0.25 0.85 0.48 1.32 0.68 3.85 1.64 7.97 0.61 9.21-2.29 1.23-2.9-0.89-6.58-4.74-8.22zM4.7 7.61a1.07 1.07 0 1 1 0.83-1.96 1.07 1.07 0 0 1-0.83 1.96z m2.93 1.25a1.07 1.07 0 1 1 0.84-1.97 1.07 1.07 0 0 1-0.84 1.97z m2.89 1.23c-0.54-0.23-0.8-0.86-0.56-1.4s0.86-0.8 1.4-0.57 0.8 0.86 0.56 1.4a1.07 1.07 0 0 1-1.4 0.57z"></path></g><g id="SvgjsG32328"><path d="M6.39 5.73l0.88 0.37a0.48 0.48 0 0 0 0.63-0.25L9.01 3.23a0.49 0.49 0 0 0-0.26-0.63l-0.87-0.37-1.49 3.5z m-2.21 5.2l0.88 0.38a0.49 0.49 0 0 1 0.25 0.63l-1.1 2.61A0.48 0.48 0 0 1 3.57 14.81l-0.88-0.37L4.18 10.93z m0.06-3.04c1.01-2.39 1.55-2.41 1.8-2.31l0.07 0.03L7.6 2.11l-0.09-0.04C7.05 1.88 4.48 1.76 2.24 7.04-0.01 12.32 1.87 14.09 2.32 14.28l0.1 0.04L3.9 10.82l-0.07-0.04c-0.26-0.11-0.6-0.51 0.41-2.89zM9.41 4.06a1.09 1.09 0 0 1-0.04 0.74 1.09 1.09 0 0 1-0.5 0.55l0.32 0.62c0.37-0.19 0.66-0.51 0.82-0.89a1.8 1.8 0 0 0 0.07-1.21l-0.67 0.19zM9.79 7.6a3.47 3.47 0 0 0 1.75-1.8c0.34-0.8 0.37-1.69 0.08-2.51l-0.66 0.22a2.78 2.78 0 0 1-0.06 2.02c-0.27 0.65-0.78 1.16-1.42 1.45L9.78 7.6z m-0.35-0.52z m-0.01 0z m0.01 0z"></path><path d="M10.38 9.24a5.14 5.14 0 0 0 2.69-2.71 5.15 5.15 0 0 0 0.09-3.81l-0.66 0.23A4.46 4.46 0 0 1 12.43 6.26c-0.45 1.06-1.28 1.9-2.34 2.35l0.29 0.63z"></path><path d="M10.98 10.88c1.63-0.7 2.92-1.99 3.61-3.63 0.69-1.63 0.73-3.44 0.11-5.1l-0.65 0.25A6.14 6.14 0 0 1 13.95 6.98c-0.63 1.47-1.78 2.63-3.24 3.26l0.27 0.64z"></path></g><g id="SvgjsG32333"><path d="M11.19 0.65c-3.04-1.29-6.55 0.13-7.84 3.17-2.18 5.14 1.58 11.59 1.58 11.59s7.25-1.77 9.43-6.92c1.29-3.04-0.13-6.55-3.17-7.84z m-3.37 7.94c-1.34-0.57-1.97-2.12-1.4-3.47S8.55 3.15 9.89 3.72s1.97 2.12 1.4 3.47S9.17 9.16 7.82 8.59z"></path></g><g id="SvgjsG32329"><path d="M4.87 15.36l0 0c-1.97-0.84-3.49-2.39-4.29-4.37C-0.22 9.01-0.2 6.84 0.64 4.87 1.47 2.9 3.02 1.38 5 0.58 6.98-0.22 9.15-0.2 11.12 0.63l0.01 0.01C13.09 1.47 14.62 3.02 15.42 5c0.8 1.98 0.78 4.15-0.05 6.12-0.84 1.97-2.39 3.49-4.38 4.29-1.98 0.8-4.16 0.78-6.12-0.05z m5.53-13.04c-1.51-0.64-3.19-0.66-4.71-0.03-1.52 0.62-2.72 1.79-3.36 3.3-0.64 1.52-0.66 3.19-0.04 4.71 0.62 1.53 1.79 2.72 3.3 3.37 3.13 1.33 6.75-0.14 8.08-3.27 1.32-3.12-0.14-6.75-3.26-8.07l-0.01 0z"></path><path d="M8.97 7.48L9.67 5.83c0.46 0.23 0.63 0.86 0.47 1.35l1.56 0.67c0.68-1.6-0.42-3.06-1.39-3.56l0.45-1.08L9.27 2.58l-0.45 1.08c-0.44-0.18-2.65-0.46-3.42 1.33-0.68 1.59 0.56 2.63 1.5 3.2l-0.77 1.8c-0.63-0.51-0.53-1.12-0.44-1.62l-1.58-0.68c-0.66 1.84 0.56 3.34 1.37 3.84l-0.47 1.11 1.5 0.64 0.47-1.09c1.22 0.44 3.07 0.01 3.66-1.4 0.69-1.62-0.53-2.67-1.67-3.31zM7.59 6.58c-1.05-0.47-0.58-1.64 0.58-1.37l-0.58 1.37z m0.06 4.06L8.31 9.09c1.3 0.59 0.89 1.97-0.66 1.55z"></path></g><g id="SvgjsG32335"><path d="M12.95 5.4l-0.94-1.7L12.98 1.42c-0.7 0.05-2.09 0.59-2.4 2.04-0.14 0.41-0.27 1.55-0.63 2.04-0.49 0.66-0.56 0.65-2.17 1.53L-0.23 11.28c-0.52 0.25-0.75 0.89-0.5 1.41 0.25 0.53 0.87 0.75 1.39 0.5L10.71 7.81c0.64-0.35 1.6-0.48 2.33-0.38 1.28 0.13 2.57-0.57 3.12-1.84 0.43-1.02 0.26-2.23-0.34-2.96l-0.95 2.24-1.92 0.53z"></path></g><g id="SvgjsG32334"><path d="M6.57 0.68c0.31 0.13 0.66-0.02 0.79-0.32 0.13-0.3-0.01-0.66-0.32-0.79a0.6 0.6 0 0 0-0.79 0.32c-0.13 0.31 0.01 0.67 0.32 0.79m1.63 0.7c0.31 0.13 0.66-0.02 0.79-0.33a0.6 0.6 0 0 0-0.32-0.79c-0.3-0.13-0.66 0.02-0.79 0.32-0.13 0.31 0.01 0.67 0.32 0.8M16.28 2.82c0.28 0.12 0.41 0.44 0.29 0.72l-0.73 1.73L4.68 0.54 5.41-1.19C5.53-1.47 5.86-1.6 6.13-1.48L16.28 2.82zM5.95 12.81c1.99 0.84 4.28-0.08 5.12-2.07 0.84-1.98-0.08-4.28-2.07-5.12-1.98-0.84-4.27 0.08-5.11 2.07-0.84 1.99 0.08 4.28 2.06 5.12M-0.65 13.02L4.11 1.81a0.55 0.55 0 0 1 0.72-0.29l10.14 4.31a0.55 0.55 0 0 1 0.29 0.72L10.51 17.76-0.65 13.02z"></path><path d="M10.78 9.53a3.33 3.33 0 0 1-0.24 0.88c-0.71 1.67-2.64 2.44-4.3 1.73-1.67-0.71-2.45-2.63-1.74-4.3 0.13-0.31 0.31-0.59 0.51-0.83l0 0.01a1.14 1.14 0 0 0 0.63 0.67c0.27 0.11 0.55 0.12 0.81 0.03l-0.01 0a1.14 1.14 0 0 0 0.59 0.56c0.28 0.12 0.57 0.12 0.84 0.02l0 0c0.11 0.25 0.32 0.46 0.6 0.59 0.28 0.12 0.59 0.12 0.86 0.01l-0.01 0c0.11 0.27 0.32 0.48 0.61 0.61a1.15 1.15 0 0 0 0.85 0.02l0 0z"></path></g><g id="SvgjsG32330"><path d="M0.61 12.09l-1.09-0.46C-1.23 11.31-1.73 10.45-1.32 9.48c0 0 2.92-6.88 2.93-6.9 0.36-0.85 1.35-1.2 2.12-0.87l1.09 0.47-4.21 9.91z m11.06-6.99L12.27 3.68c0.22-0.51-0.09-1.03-0.65-1.27 0 0-2.12-0.9-2.11-0.89-0.55-0.24-1.15-0.11-1.37 0.4l-0.6 1.43L5.55 2.51l-4.21 9.91 8.12 3.45L13.67 5.95l-2-0.85z m-0.75-0.31L8.26 3.66l0.63-1.47 2.65 1.13-0.62 1.47z m-0.72 11.37l1.09 0.46c0.75 0.32 1.71 0.07 2.12-0.89 0 0 2.92-6.88 2.93-6.89 0.36-0.85-0.07-1.8-0.84-2.13l-1.09-0.46-4.21 9.91z"></path></g><g id="SvgjsG32338"><use xlink:href="#SvgjsG32325" transform="translate(0, 0) scale(0.6)" fill="rgba(157, 157, 157, 1)"></use><use xlink:href="#SvgjsG32326" transform="translate(0, 38.4) scale(0.6)" fill="rgba(110, 110, 110, 1)"></use><use xlink:href="#SvgjsG32327" transform="translate(0, 76.8) scale(0.6)" fill="rgba(157, 157, 157, 1)"></use><use xlink:href="#SvgjsG32326" transform="translate(0, 115.19999999999999) scale(0.6)" fill="rgba(110, 110, 110, 1)"></use><use xlink:href="#SvgjsG32328" transform="translate(0, 153.6) scale(0.6)" fill="rgba(110, 110, 110, 1)"></use><use xlink:href="#SvgjsG32329" transform="translate(0, 192) scale(0.6)" fill="rgba(157, 157, 157, 1)"></use><use xlink:href="#SvgjsG32330" transform="translate(0, 230.39999999999998) scale(0.6)" fill="rgba(110, 110, 110, 1)"></use><use xlink:href="#SvgjsG32325" transform="translate(0, 268.8) scale(0.6)" fill="rgba(157, 157, 157, 1)"></use><use xlink:href="#SvgjsG32327" transform="translate(0, 307.2) scale(0.6)" fill="rgba(110, 110, 110, 1)"></use><use xlink:href="#SvgjsG32331" transform="translate(0, 345.59999999999997) scale(0.6)" fill="rgba(157, 157, 157, 1)"></use><use xlink:href="#SvgjsG32332" transform="translate(38.4, 0) scale(0.6)" fill="rgba(157, 157, 157, 1)"></use><use xlink:href="#SvgjsG32333" transform="translate(38.4, 38.4) scale(0.6)" fill="rgba(110, 110, 110, 1)"></use><use xlink:href="#SvgjsG32330" transform="translate(38.4, 76.8) scale(0.6)" fill="rgba(110, 110, 110, 1)"></use><use xlink:href="#SvgjsG32334" transform="translate(38.4, 115.19999999999999) scale(0.6)" fill="rgba(157, 157, 157, 1)"></use><use xlink:href="#SvgjsG32335" transform="translate(38.4, 153.6) scale(0.6)" fill="rgba(110, 110, 110, 1)"></use><use xlink:href="#SvgjsG32327" transform="translate(38.4, 192) scale(0.6)" fill="rgba(110, 110, 110, 1)"></use><use xlink:href="#SvgjsG32330" transform="translate(38.4, 230.39999999999998) scale(0.6)" fill="rgba(157, 157, 157, 1)"></use><use xlink:href="#SvgjsG32334" transform="translate(38.4, 268.8) scale(0.6)" fill="rgba(157, 157, 157, 1)"></use><use xlink:href="#SvgjsG32332" transform="translate(38.4, 307.2) scale(0.6)" fill="rgba(157, 157, 157, 1)"></use><use xlink:href="#SvgjsG32331" transform="translate(38.4, 345.59999999999997) scale(0.6)" fill="rgba(110, 110, 110, 1)"></use><use xlink:href="#SvgjsG32328" transform="translate(76.8, 0) scale(0.6)" fill="rgba(157, 157, 157, 1)"></use><use xlink:href="#SvgjsG32331" transform="translate(76.8, 38.4) scale(0.6)" fill="rgba(157, 157, 157, 1)"></use><use xlink:href="#SvgjsG32334" transform="translate(76.8, 76.8) scale(0.6)" fill="rgba(157, 157, 157, 1)"></use><use xlink:href="#SvgjsG32333" transform="translate(76.8, 115.19999999999999) scale(0.6)" fill="rgba(157, 157, 157, 1)"></use><use xlink:href="#SvgjsG32328" transform="translate(76.8, 153.6) scale(0.6)" fill="rgba(110, 110, 110, 1)"></use><use xlink:href="#SvgjsG32327" transform="translate(76.8, 192) scale(0.6)" fill="rgba(157, 157, 157, 1)"></use><use xlink:href="#SvgjsG32329" transform="translate(76.8, 230.39999999999998) scale(0.6)" fill="rgba(110, 110, 110, 1)"></use><use xlink:href="#SvgjsG32332" transform="translate(76.8, 268.8) scale(0.6)" fill="rgba(110, 110, 110, 1)"></use><use xlink:href="#SvgjsG32326" transform="translate(76.8, 307.2) scale(0.6)" fill="rgba(110, 110, 110, 1)"></use><use xlink:href="#SvgjsG32327" transform="translate(76.8, 345.59999999999997) scale(0.6)" fill="rgba(110, 110, 110, 1)"></use><use xlink:href="#SvgjsG32329" transform="translate(115.19999999999999, 0) scale(0.6)" fill="rgba(157, 157, 157, 1)"></use><use xlink:href="#SvgjsG32330" transform="translate(115.19999999999999, 38.4) scale(0.6)" fill="rgba(157, 157, 157, 1)"></use><use xlink:href="#SvgjsG32333" transform="translate(115.19999999999999, 76.8) scale(0.6)" fill="rgba(110, 110, 110, 1)"></use><use xlink:href="#SvgjsG32333" transform="translate(115.19999999999999, 115.19999999999999) scale(0.6)" fill="rgba(110, 110, 110, 1)"></use><use xlink:href="#SvgjsG32333" transform="translate(115.19999999999999, 153.6) scale(0.6)" fill="rgba(110, 110, 110, 1)"></use><use xlink:href="#SvgjsG32326" transform="translate(115.19999999999999, 192) scale(0.6)" fill="rgba(157, 157, 157, 1)"></use><use xlink:href="#SvgjsG32334" transform="translate(115.19999999999999, 230.39999999999998) scale(0.6)" fill="rgba(110, 110, 110, 1)"></use><use xlink:href="#SvgjsG32326" transform="translate(115.19999999999999, 268.8) scale(0.6)" fill="rgba(110, 110, 110, 1)"></use><use xlink:href="#SvgjsG32326" transform="translate(115.19999999999999, 307.2) scale(0.6)" fill="rgba(157, 157, 157, 1)"></use><use xlink:href="#SvgjsG32328" transform="translate(115.19999999999999, 345.59999999999997) scale(0.6)" fill="rgba(157, 157, 157, 1)"></use><use xlink:href="#SvgjsG32333" transform="translate(153.6, 0) scale(0.6)" fill="rgba(157, 157, 157, 1)"></use><use xlink:href="#SvgjsG32330" transform="translate(153.6, 38.4) scale(0.6)" fill="rgba(157, 157, 157, 1)"></use><use xlink:href="#SvgjsG32335" transform="translate(153.6, 76.8) scale(0.6)" fill="rgba(110, 110, 110, 1)"></use><use xlink:href="#SvgjsG32331" transform="translate(153.6, 115.19999999999999) scale(0.6)" fill="rgba(110, 110, 110, 1)"></use><use xlink:href="#SvgjsG32336" transform="translate(153.6, 153.6) scale(0.6)" fill="rgba(110, 110, 110, 1)"></use><use xlink:href="#SvgjsG32332" transform="translate(153.6, 192) scale(0.6)" fill="rgba(110, 110, 110, 1)"></use><use xlink:href="#SvgjsG32334" transform="translate(153.6, 230.39999999999998) scale(0.6)" fill="rgba(110, 110, 110, 1)"></use><use xlink:href="#SvgjsG32325" transform="translate(153.6, 268.8) scale(0.6)" fill="rgba(110, 110, 110, 1)"></use><use xlink:href="#SvgjsG32325" transform="translate(153.6, 307.2) scale(0.6)" fill="rgba(157, 157, 157, 1)"></use><use xlink:href="#SvgjsG32334" transform="translate(153.6, 345.59999999999997) scale(0.6)" fill="rgba(110, 110, 110, 1)"></use><use xlink:href="#SvgjsG32330" transform="translate(192, 0) scale(0.6)" fill="rgba(110, 110, 110, 1)"></use><use xlink:href="#SvgjsG32334" transform="translate(192, 38.4) scale(0.6)" fill="rgba(110, 110, 110, 1)"></use><use xlink:href="#SvgjsG32334" transform="translate(192, 76.8) scale(0.6)" fill="rgba(157, 157, 157, 1)"></use><use xlink:href="#SvgjsG32335" transform="translate(192, 115.19999999999999) scale(0.6)" fill="rgba(110, 110, 110, 1)"></use><use xlink:href="#SvgjsG32327" transform="translate(192, 153.6) scale(0.6)" fill="rgba(157, 157, 157, 1)"></use><use xlink:href="#SvgjsG32327" transform="translate(192, 192) scale(0.6)" fill="rgba(110, 110, 110, 1)"></use><use xlink:href="#SvgjsG32330" transform="translate(192, 230.39999999999998) scale(0.6)" fill="rgba(110, 110, 110, 1)"></use><use xlink:href="#SvgjsG32336" transform="translate(192, 268.8) scale(0.6)" fill="rgba(157, 157, 157, 1)"></use><use xlink:href="#SvgjsG32333" transform="translate(192, 307.2) scale(0.6)" fill="rgba(157, 157, 157, 1)"></use><use xlink:href="#SvgjsG32334" transform="translate(192, 345.59999999999997) scale(0.6)" fill="rgba(110, 110, 110, 1)"></use><use xlink:href="#SvgjsG32336" transform="translate(230.39999999999998, 0) scale(0.6)" fill="rgba(110, 110, 110, 1)"></use><use xlink:href="#SvgjsG32336" transform="translate(230.39999999999998, 38.4) scale(0.6)" fill="rgba(157, 157, 157, 1)"></use><use xlink:href="#SvgjsG32335" transform="translate(230.39999999999998, 76.8) scale(0.6)" fill="rgba(157, 157, 157, 1)"></use><use xlink:href="#SvgjsG32332" transform="translate(230.39999999999998, 115.19999999999999) scale(0.6)" fill="rgba(157, 157, 157, 1)"></use><use xlink:href="#SvgjsG32332" transform="translate(230.39999999999998, 153.6) scale(0.6)" fill="rgba(110, 110, 110, 1)"></use><use xlink:href="#SvgjsG32325" transform="translate(230.39999999999998, 192) scale(0.6)" fill="rgba(157, 157, 157, 1)"></use><use xlink:href="#SvgjsG32334" transform="translate(230.39999999999998, 230.39999999999998) scale(0.6)" fill="rgba(110, 110, 110, 1)"></use><use xlink:href="#SvgjsG32335" transform="translate(230.39999999999998, 268.8) scale(0.6)" fill="rgba(110, 110, 110, 1)"></use><use xlink:href="#SvgjsG32329" transform="translate(230.39999999999998, 307.2) scale(0.6)" fill="rgba(110, 110, 110, 1)"></use><use xlink:href="#SvgjsG32332" transform="translate(230.39999999999998, 345.59999999999997) scale(0.6)" fill="rgba(157, 157, 157, 1)"></use><use xlink:href="#SvgjsG32325" transform="translate(268.8, 0) scale(0.6)" fill="rgba(110, 110, 110, 1)"></use><use xlink:href="#SvgjsG32334" transform="translate(268.8, 38.4) scale(0.6)" fill="rgba(157, 157, 157, 1)"></use><use xlink:href="#SvgjsG32334" transform="translate(268.8, 76.8) scale(0.6)" fill="rgba(157, 157, 157, 1)"></use><use xlink:href="#SvgjsG32336" transform="translate(268.8, 115.19999999999999) scale(0.6)" fill="rgba(157, 157, 157, 1)"></use><use xlink:href="#SvgjsG32330" transform="translate(268.8, 153.6) scale(0.6)" fill="rgba(157, 157, 157, 1)"></use><use xlink:href="#SvgjsG32331" transform="translate(268.8, 192) scale(0.6)" fill="rgba(157, 157, 157, 1)"></use><use xlink:href="#SvgjsG32326" transform="translate(268.8, 230.39999999999998) scale(0.6)" fill="rgba(110, 110, 110, 1)"></use><use xlink:href="#SvgjsG32337" transform="translate(268.8, 268.8) scale(0.6)" fill="rgba(110, 110, 110, 1)"></use><use xlink:href="#SvgjsG32337" transform="translate(268.8, 307.2) scale(0.6)" fill="rgba(157, 157, 157, 1)"></use><use xlink:href="#SvgjsG32326" transform="translate(268.8, 345.59999999999997) scale(0.6)" fill="rgba(157, 157, 157, 1)"></use><use xlink:href="#SvgjsG32331" transform="translate(307.2, 0) scale(0.6)" fill="rgba(110, 110, 110, 1)"></use><use xlink:href="#SvgjsG32332" transform="translate(307.2, 38.4) scale(0.6)" fill="rgba(110, 110, 110, 1)"></use><use xlink:href="#SvgjsG32326" transform="translate(307.2, 76.8) scale(0.6)" fill="rgba(110, 110, 110, 1)"></use><use xlink:href="#SvgjsG32333" transform="translate(307.2, 115.19999999999999) scale(0.6)" fill="rgba(157, 157, 157, 1)"></use><use xlink:href="#SvgjsG32327" transform="translate(307.2, 153.6) scale(0.6)" fill="rgba(157, 157, 157, 1)"></use><use xlink:href="#SvgjsG32331" transform="translate(307.2, 192) scale(0.6)" fill="rgba(110, 110, 110, 1)"></use><use xlink:href="#SvgjsG32334" transform="translate(307.2, 230.39999999999998) scale(0.6)" fill="rgba(157, 157, 157, 1)"></use><use xlink:href="#SvgjsG32327" transform="translate(307.2, 268.8) scale(0.6)" fill="rgba(110, 110, 110, 1)"></use><use xlink:href="#SvgjsG32335" transform="translate(307.2, 307.2) scale(0.6)" fill="rgba(110, 110, 110, 1)"></use><use xlink:href="#SvgjsG32337" transform="translate(307.2, 345.59999999999997) scale(0.6)" fill="rgba(157, 157, 157, 1)"></use><use xlink:href="#SvgjsG32330" transform="translate(345.59999999999997, 0) scale(0.6)" fill="rgba(157, 157, 157, 1)"></use><use xlink:href="#SvgjsG32325" transform="translate(345.59999999999997, 38.4) scale(0.6)" fill="rgba(157, 157, 157, 1)"></use><use xlink:href="#SvgjsG32331" transform="translate(345.59999999999997, 76.8) scale(0.6)" fill="rgba(110, 110, 110, 1)"></use><use xlink:href="#SvgjsG32332" transform="translate(345.59999999999997, 115.19999999999999) scale(0.6)" fill="rgba(110, 110, 110, 1)"></use><use xlink:href="#SvgjsG32328" transform="translate(345.59999999999997, 153.6) scale(0.6)" fill="rgba(157, 157, 157, 1)"></use><use xlink:href="#SvgjsG32333" transform="translate(345.59999999999997, 192) scale(0.6)" fill="rgba(157, 157, 157, 1)"></use><use xlink:href="#SvgjsG32334" transform="translate(345.59999999999997, 230.39999999999998) scale(0.6)" fill="rgba(157, 157, 157, 1)"></use><use xlink:href="#SvgjsG32330" transform="translate(345.59999999999997, 268.8) scale(0.6)" fill="rgba(110, 110, 110, 1)"></use><use xlink:href="#SvgjsG32330" transform="translate(345.59999999999997, 307.2) scale(0.6)" fill="rgba(110, 110, 110, 1)"></use><use xlink:href="#SvgjsG32326" transform="translate(345.59999999999997, 345.59999999999997) scale(0.6)" fill="rgba(157, 157, 157, 1)"></use></g></defs></svg>