<svg width="272" height="251" viewBox="0 0 272 251" fill="none" xmlns="http://www.w3.org/2000/svg">
<path d="M3.88571 125.5C3.88571 25.062 27.2039 3.53521 136 3.53521C244.796 3.53521 268.114 25.062 268.114 125.5C268.114 225.938 244.796 247.465 136 247.465C27.2039 247.465 3.88571 225.938 3.88571 125.5Z" fill="white"/>
<path fill-rule="evenodd" clip-rule="evenodd" d="M13.0249 64.8271C9.22915 80.5942 7.77143 100.47 7.77143 125.5C7.77143 150.53 9.22915 170.406 13.0249 186.173C16.8116 201.903 22.8731 213.321 31.9119 221.665C50.0692 238.428 81.4631 243.93 136 243.93C190.537 243.93 221.931 238.428 240.088 221.665C249.127 213.321 255.188 201.903 258.975 186.173C262.771 170.406 264.229 150.53 264.229 125.5C264.229 100.47 262.771 80.5942 258.975 64.8271C255.188 49.0974 249.127 37.6792 240.088 29.3348C221.931 12.5724 190.537 7.07042 136 7.07042C81.4631 7.07042 50.0692 12.5724 31.9119 29.3348C22.8731 37.6792 16.8116 49.0974 13.0249 64.8271ZM26.3767 24.3719C47.0775 5.26138 81.7408 0 136 0C190.259 0 224.922 5.26138 245.623 24.3719C256.014 33.964 262.581 46.7596 266.567 63.3144C270.543 79.8317 272 100.311 272 125.5C272 150.689 270.543 171.168 266.567 187.686C262.581 204.24 256.014 217.036 245.623 226.628C224.922 245.739 190.259 251 136 251C81.7408 251 47.0775 245.739 26.3767 226.628C15.9864 217.036 9.4187 204.24 5.43338 187.686C1.45705 171.168 0 150.689 0 125.5C0 100.311 1.45705 79.8317 5.43338 63.3144C9.4187 46.7596 15.9864 33.964 26.3767 24.3719Z" fill="#2BE66A"/>
<path d="M102.771 187.218C111.516 190.523 122.106 192.111 134.539 191.983C147.221 191.853 157.141 189.602 164.3 185.229C171.458 180.857 174.99 174.937 174.898 167.472C174.805 160.006 171.371 153.819 164.595 148.91C157.819 144.002 149.559 139.674 139.813 135.928C130.067 132.181 120.318 128.209 110.567 124.01C100.815 119.811 92.5392 114.239 85.7381 107.294C78.9371 100.35 75.479 92.2398 75.364 82.964C75.1704 67.3535 80.7383 55.0779 92.0677 46.1371C103.394 36.9701 119.129 32.2833 139.271 32.0765C159.662 31.8672 178.861 35.8561 196.869 44.0432C197.146 46.303 197.346 52.4102 197.47 62.3647C197.59 72.093 196.575 80.4753 194.424 87.5117C188.478 89.3829 181.403 90.3606 173.197 90.4448L160.458 55.9566C154.956 53.5241 147.481 52.3564 138.031 52.4534C128.831 52.5478 121.523 54.8855 116.108 59.4664C110.691 63.8211 108.024 69.3921 108.108 76.1792C108.19 82.7402 111.618 88.4748 118.394 93.3832C125.419 98.2889 133.805 102.728 143.554 106.701C153.3 110.447 163.05 114.533 172.804 118.959C182.555 123.158 190.833 128.842 197.637 136.013C204.687 142.955 208.269 151.064 208.384 160.34C208.586 176.629 201.782 189.483 187.971 198.902C174.407 208.092 157.553 212.79 137.411 212.997C126.47 213.109 114.762 211.645 102.29 208.606C89.8141 205.34 79.3167 201.148 70.7973 196.032C70.6094 180.874 71.9345 167.397 74.7726 155.602C80.4808 154.638 88.1839 154.107 97.8821 154.007L102.771 187.218Z" fill="#303030"/>
<path d="M97.1429 143.176C97.1429 148.057 91.9238 152.014 85.4857 152.014C79.0476 152.014 73.8286 148.057 73.8286 143.176C73.8286 138.295 79.0476 134.338 85.4857 134.338C91.9238 134.338 97.1429 138.295 97.1429 143.176Z" fill="#FC9700"/>
</svg>
