<svg width="48" height="48" viewBox="0 0 48 48" fill="none" xmlns="http://www.w3.org/2000/svg">
<path d="M40 41H8C5.8 41 4 39.2 4 37V11C4 8.8 5.8 7 8 7H40C42.2 7 44 8.8 44 11V37C44 39.2 42.2 41 40 41Z" fill="#96F4B5"/>
<path d="M16 18C17.6569 18 19 16.6569 19 15C19 13.3431 17.6569 12 16 12C14.3431 12 13 13.3431 13 15C13 16.6569 14.3431 18 16 18Z" fill="#00C87E"/>
<path d="M30 16L19 32H41L30 16Z" fill="#00C87E"/>
<path d="M17 22L9 32H25L17 22Z" fill="#29E468"/>
<path d="M39.5 15C42.5376 15 45 12.5376 45 9.5C45 6.46243 42.5376 4 39.5 4C36.4624 4 34 6.46243 34 9.5C34 12.5376 36.4624 15 39.5 15Z" fill="#00C87E"/>
<path d="M40.5999 6.2002H38.3999V12.8002H40.5999V6.2002Z" fill="white"/>
<path d="M42.8002 8.3999H36.2002V10.5999H42.8002V8.3999Z" fill="white"/>
</svg>
