<svg width="48" height="48" viewBox="0 0 48 48" fill="none" xmlns="http://www.w3.org/2000/svg">
<path d="M40 41H8C5.8 41 4 39.2 4 37V11C4 8.8 5.8 7 8 7H40C42.2 7 44 8.8 44 11V37C44 39.2 42.2 41 40 41Z" fill="#96F4B5"/>
<path d="M16 18C17.6569 18 19 16.6569 19 15C19 13.3431 17.6569 12 16 12C14.3431 12 13 13.3431 13 15C13 16.6569 14.3431 18 16 18Z" fill="#00C87E"/>
<path d="M30 16L19 32H41L30 16Z" fill="#00C87E"/>
<path d="M17 22L9 32H25L17 22Z" fill="#29E468"/>
<path d="M41.5 14C45.0899 14 48 11.0899 48 7.5C48 3.91015 45.0899 1 41.5 1C37.9101 1 35 3.91015 35 7.5C35 11.0899 37.9101 14 41.5 14Z" fill="#00C87E"/>
<path d="M42.7997 3.6001H40.1997V11.4001H42.7997V3.6001Z" fill="white"/>
<path d="M45.4001 6.19971H37.6001V8.79971H45.4001V6.19971Z" fill="white"/>
</svg>
