<svg width="1.3rem" height="1.3rem" viewBox="0 0 29 31" fill="none" xmlns="http://www.w3.org/2000/svg">
<path d="M28.7284 29.1234L20.3123 20.3708C22.4589 18.2179 23.7888 15.2499 23.7888 11.9767C23.7888 5.41777 18.4533 0.0822754 11.8944 0.0822754C5.3355 0.0822754 0 5.41777 0 11.9767C0 18.5356 5.3355 23.8711 11.8944 23.8711C14.7734 23.8711 17.4157 22.842 19.4751 21.1343L27.9117 29.9084C28.0227 30.0245 28.1711 30.0823 28.3201 30.0823C28.4617 30.0823 28.6027 30.0296 28.7126 29.9242C28.938 29.7073 28.9448 29.3488 28.7284 29.1234ZM11.8944 22.7383C5.96024 22.7383 1.1328 17.9109 1.1328 11.9767C1.1328 6.04251 5.96024 1.21508 11.8944 1.21508C17.8286 1.21508 22.656 6.04251 22.656 11.9767C22.656 17.9109 17.828 22.7383 11.8944 22.7383Z" fill="black"/>
</svg>
