<svg width="0.8rem" height="0.8rem" viewBox="0 0 21 20" fill="none" xmlns="http://www.w3.org/2000/svg">
<path d="M9.90531 0.838721C10.2096 -0.0720856 11.4979 -0.0720858 11.8022 0.83872L13.5114 5.95418C13.6477 6.36218 14.0297 6.63729 14.4598 6.63729H19.9301C20.9056 6.63729 21.3039 7.89111 20.5072 8.454L16.1301 11.5466C15.7698 11.8012 15.6189 12.2618 15.7587 12.6802L17.4418 17.7179C17.748 18.6343 16.7054 19.4091 15.9163 18.8515L11.4308 15.6823C11.0849 15.4379 10.6226 15.4379 10.2767 15.6823L5.79122 18.8515C5.0021 19.4091 3.95953 18.6343 4.26572 17.7179L5.94888 12.6802C6.08868 12.2618 5.93777 11.8012 5.57746 11.5466L1.20037 8.454C0.403688 7.89111 0.801943 6.63729 1.77741 6.63729H7.2477C7.67787 6.63729 8.05984 6.36218 8.19616 5.95418L9.90531 0.838721Z" fill="#FED500"/>
</svg>
