<svg width="39" height="39" viewBox="0 0 39 39" fill="none" xmlns="http://www.w3.org/2000/svg">
<circle cx="19.5" cy="19.5" r="18.75" stroke="#FC9700" stroke-width="1.5"/>
<path d="M31.4401 13.7748C30.4822 14.0814 29.4677 14.282 28.4296 14.3708C29.5193 13.9013 30.3387 13.1569 30.7348 12.2765C29.7024 12.7178 28.5763 13.0286 27.4036 13.1962C26.9099 12.8165 26.3159 12.5147 25.658 12.309C25 12.1033 24.2918 11.9982 23.5766 12C20.6812 12 18.3339 13.6969 18.3339 15.7876C18.3339 16.0838 18.3799 16.3734 18.4694 16.65C16.3923 16.5774 14.3587 16.188 12.4984 15.5065C10.638 14.825 8.99166 13.8662 7.66447 12.6917C7.19892 13.268 6.95433 13.9261 6.95658 14.596C6.95658 15.9104 7.88168 17.0708 9.28724 17.7486C8.45602 17.7289 7.64276 17.5663 6.91312 17.2735V17.3202C6.91312 19.1558 8.72119 20.6861 11.117 21.0358C10.6668 21.1235 10.2029 21.1676 9.73702 21.1677C9.39713 21.1677 9.07003 21.1436 8.74931 21.0976C9.09208 21.8549 9.7477 22.5149 10.6251 22.9863C11.5026 23.4578 12.5583 23.7168 13.6458 23.7279C11.7803 24.7822 9.49019 25.3518 7.13547 25.347C6.71751 25.3468 6.29988 25.3299 5.88452 25.2958C8.28835 26.4121 11.0756 27.0031 13.9205 27C23.5639 27 28.836 21.2277 28.836 16.2224L28.8181 15.7322C29.8464 15.2015 30.7348 14.5384 31.4401 13.7748V13.7748Z" fill="#111111"/>
</svg>
